<svg width="30" height="30" viewBox="0 0 30 30" fill="none" xmlns="http://www.w3.org/2000/svg">
<path d="M7.57143 6H5.71429C4.7292 6 3.78445 6.42143 3.08789 7.17157C2.39133 7.92172 2 8.93913 2 10V24C2 25.0609 2.39133 26.0783 3.08789 26.8284C3.78445 27.5786 4.7292 28 5.71429 28H24.2857C25.2708 28 26.2155 27.5786 26.9121 26.8284C27.6087 26.0783 28 25.0609 28 24V10C28 8.93913 27.6087 7.92172 26.9121 7.17157C26.2155 6.42143 25.2708 6 24.2857 6H22.4286M20.5714 14L15 20M15 20L9.42857 14M15 20V2" stroke="#707070" stroke-width="2.5" stroke-linecap="square" stroke-linejoin="round"/>
</svg>
