<svg width="26" height="26" viewBox="0 0 26 26" fill="none" xmlns="http://www.w3.org/2000/svg">
<path d="M13 25.5C6.09625 25.5 0.5 19.9037 0.5 13C0.5 7.4025 4.17875 2.665 9.25 1.0725V3.7275C7.10116 4.60006 5.32225 6.19213 4.21757 8.23139C3.1129 10.2707 2.7511 12.6304 3.19407 14.9069C3.63703 17.1835 4.85724 19.2354 6.64596 20.7117C8.43467 22.1879 10.6808 22.9968 13 23C14.9922 22.9999 16.9391 22.4051 18.5911 21.2915C20.243 20.178 21.5249 18.5967 22.2725 16.75H24.9275C23.335 21.8212 18.5975 25.5 13 25.5ZM25.4375 14.25H11.75V0.5625C12.1612 0.52125 12.5787 0.5 13 0.5C19.9037 0.5 25.5 6.09625 25.5 13C25.5 13.4213 25.4787 13.8388 25.4375 14.25ZM14.25 3.0775V11.75H22.9225C22.6443 9.54701 21.6411 7.49917 20.071 5.92904C18.5008 4.35892 16.453 3.35573 14.25 3.0775Z" fill="#707070"/>
</svg>
