<svg width="24" height="26" viewBox="0 0 24 26" fill="none" xmlns="http://www.w3.org/2000/svg">
<path d="M4 20.5H6.5V23H21.5V3H6.5V5.5H4V1.75C4 1.41848 4.1317 1.10054 4.36612 0.866116C4.60054 0.631696 4.91848 0.5 5.25 0.5H22.75C23.0815 0.5 23.3995 0.631696 23.6339 0.866116C23.8683 1.10054 24 1.41848 24 1.75V24.25C24 24.5815 23.8683 24.8995 23.6339 25.1339C23.3995 25.3683 23.0815 25.5 22.75 25.5H5.25C4.91848 25.5 4.60054 25.3683 4.36612 25.1339C4.1317 24.8995 4 24.5815 4 24.25V20.5ZM6.5 11.75H15.25V14.25H6.5V18L0.25 13L6.5 8V11.75Z" fill="#707070"/>
</svg>
