<svg width="18" height="21" viewBox="0 0 18 21" fill="none" xmlns="http://www.w3.org/2000/svg">
<path d="M13.8188 6.20946V5.31571C13.8188 2.56571 11.7563 0.228207 9.14375 0.0219573C7.7 -0.115543 6.25625 0.400082 5.19063 1.36258C4.125 2.32508 3.50625 3.70008 3.50625 5.10946V6.20946C1.5125 6.58758 0 8.34071 0 10.472V16.6938C0 18.9626 1.85625 20.7845 4.09063 20.7845H13.1656C15.4344 20.7845 17.2906 18.9282 17.2906 16.6595V10.4032C17.325 8.34071 15.8125 6.62196 13.8188 6.20946ZM6.22188 2.49696C6.97813 1.80946 7.975 1.46571 9.00625 1.56883C10.8281 1.74071 12.2719 3.39071 12.2719 5.31571V6.10633H5.05313V5.07508C5.05313 4.11258 5.46562 3.18446 6.22188 2.49696ZM15.7781 16.6938C15.7781 18.1032 14.6094 19.272 13.2 19.272H4.125C2.71562 19.272 1.58125 18.1376 1.58125 16.7282V10.472C1.58125 8.92508 2.81875 7.68758 4.36563 7.68758H12.9594C14.5063 7.68758 15.7781 8.92508 15.7781 10.4032V16.6938Z" fill="#64748B"/>
<path d="M8.66172 11.2627C8.24922 11.2627 7.87109 11.6064 7.87109 12.0533V15.6627C7.87109 16.0752 8.21484 16.4533 8.66172 16.4533C9.07422 16.4533 9.45234 16.1096 9.45234 15.6627V12.0189C9.45234 11.6064 9.07422 11.2627 8.66172 11.2627Z" fill="#64748B"/>
</svg>
