<svg width="18" height="22" viewBox="0 0 18 22" fill="none" xmlns="http://www.w3.org/2000/svg">
<path d="M9.00078 9.52197C11.5445 9.52197 13.607 7.52822 13.607 5.05322C13.607 2.57822 11.5445 0.584473 9.00078 0.584473C6.45703 0.584473 4.39453 2.57822 4.39453 5.05322C4.39453 7.52822 6.45703 9.52197 9.00078 9.52197ZM9.00078 2.16572C10.6852 2.16572 12.0602 3.47197 12.0602 5.0876C12.0602 6.70322 10.6852 8.00947 9.00078 8.00947C7.31641 8.00947 5.94141 6.70322 5.94141 5.0876C5.94141 3.47197 7.31641 2.16572 9.00078 2.16572Z" fill="#64748B"/>
<path d="M11.2352 11.0688H6.76641C3.08828 11.0688 0.0976562 14.0938 0.0976562 17.772V20.6251C0.0976562 21.0376 0.441406 21.4157 0.888281 21.4157C1.33516 21.4157 1.67891 21.072 1.67891 20.6251V17.772C1.67891 14.9532 3.98203 12.6157 6.83516 12.6157H11.2695C14.0883 12.6157 16.4258 14.9188 16.4258 17.772V20.6251C16.4258 21.0376 16.7695 21.4157 17.2164 21.4157C17.6633 21.4157 18.007 21.072 18.007 20.6251V17.772C17.9039 14.0938 14.9133 11.0688 11.2352 11.0688Z" fill="#64748B"/>
</svg>
