<svg width="26" height="24" viewBox="0 0 26 24" fill="none" xmlns="http://www.w3.org/2000/svg">
<path d="M0.500002 8.24251C0.499343 7.25777 0.692941 6.28256 1.06971 5.37274C1.44648 4.46292 1.99902 3.63636 2.69569 2.94039C3.39236 2.24442 4.21947 1.69271 5.12967 1.31685C6.03986 0.940989 7.01526 0.748366 8 0.75001H18C22.1413 0.75001 25.5 4.11876 25.5 8.24251V23.25H8C3.85875 23.25 0.500002 19.8813 0.500002 15.7575V8.24251ZM23 20.75V8.24251C22.9967 6.91814 22.4686 5.64906 21.5314 4.71328C20.5943 3.77751 19.3244 3.25133 18 3.25001H8C7.34356 3.24836 6.69325 3.37632 6.08637 3.62654C5.47949 3.87676 4.92798 4.24433 4.46345 4.70815C3.99893 5.17198 3.63054 5.72294 3.37941 6.32945C3.12828 6.93595 2.99934 7.58607 3 8.24251V15.7575C3.00331 17.0819 3.53139 18.351 4.46857 19.2867C5.40575 20.2225 6.67562 20.7487 8 20.75H23ZM15.5 10.75H18V13.25H15.5V10.75ZM8 10.75H10.5V13.25H8V10.75Z" fill="#707070"/>
</svg>
