<svg width="26" height="28" viewBox="0 0 26 28" fill="none" xmlns="http://www.w3.org/2000/svg">
<path d="M1.45341 20.6667C0.889775 19.692 0.451634 18.6499 0.149414 17.5653C0.807157 17.2308 1.35954 16.7208 1.74545 16.0919C2.13137 15.4629 2.33577 14.7394 2.33604 14.0015C2.33632 13.2636 2.13246 12.5399 1.74702 11.9107C1.36157 11.2814 0.809574 10.771 0.152081 10.436C0.754795 8.25666 1.90239 6.26661 3.48675 4.65334C4.10554 5.05564 4.82357 5.27889 5.56138 5.29838C6.2992 5.31787 7.02802 5.13285 7.66719 4.76378C8.30636 4.39472 8.83095 3.85601 9.18292 3.20726C9.53488 2.55852 9.70049 1.82504 9.66141 1.08801C11.8509 0.522171 14.1484 0.523089 16.3374 1.09067C16.2987 1.82769 16.4646 2.56106 16.8169 3.20962C17.1691 3.85818 17.6939 4.39664 18.3332 4.76542C18.9725 5.1342 19.7013 5.31892 20.4391 5.29914C21.1769 5.27936 21.8948 5.05585 22.5134 4.65334C23.2854 5.44001 23.9707 6.33468 24.5467 7.33334C25.1241 8.33201 25.5561 9.37334 25.8507 10.4347C25.193 10.7692 24.6406 11.2792 24.2547 11.9081C23.8688 12.5371 23.6644 13.2606 23.6641 13.9985C23.6638 14.7365 23.8677 15.4601 24.2531 16.0893C24.6386 16.7186 25.1906 17.229 25.8481 17.564C25.2454 19.7434 24.0978 21.7334 22.5134 23.3467C21.8946 22.9444 21.1766 22.7211 20.4388 22.7016C19.701 22.6821 18.9721 22.8672 18.333 23.2362C17.6938 23.6053 17.1692 24.144 16.8172 24.7928C16.4653 25.4415 16.2997 26.175 16.3387 26.912C14.1493 27.4778 11.8518 27.4769 9.66275 26.9093C9.70148 26.1723 9.53554 25.439 9.18331 24.7904C8.83107 24.1418 8.30627 23.6034 7.66698 23.2346C7.02768 22.8658 6.29882 22.6811 5.56105 22.7009C4.82328 22.7207 4.10536 22.9442 3.48675 23.3467C2.69873 22.5426 2.01554 21.6421 1.45341 20.6667ZM9.00008 20.928C10.4209 21.7475 11.4892 23.0627 12.0001 24.6213C12.6654 24.684 13.3334 24.6853 13.9987 24.6227C14.5099 23.0638 15.5787 21.7486 17.0001 20.9293C18.4204 20.1076 20.0941 19.8393 21.7001 20.176C22.0867 19.632 22.4201 19.052 22.6974 18.4453C21.6033 17.2233 20.9989 15.6403 21.0001 14C21.0001 12.32 21.6267 10.7507 22.6974 9.55468C22.4181 8.94821 22.0834 8.36885 21.6974 7.82401C20.0925 8.16042 18.4198 7.89264 17.0001 7.07201C15.5792 6.2525 14.511 4.93732 14.0001 3.37867C13.3347 3.31601 12.6667 3.31467 12.0014 3.37734C11.4902 4.9362 10.4214 6.25142 9.00008 7.07067C7.57979 7.89243 5.90605 8.1607 4.30008 7.82401C3.91417 8.36839 3.58026 8.94783 3.30275 9.55468C4.39684 10.7768 5.00126 12.3597 5.00008 14C5.00008 15.68 4.37341 17.2493 3.30275 18.4453C3.58204 19.0518 3.9168 19.6312 4.30275 20.176C5.9077 19.8396 7.58036 20.1074 9.00008 20.928ZM13.0001 18C11.9392 18 10.9218 17.5786 10.1717 16.8284C9.42151 16.0783 9.00008 15.0609 9.00008 14C9.00008 12.9391 9.42151 11.9217 10.1717 11.1716C10.9218 10.4214 11.9392 10 13.0001 10C14.0609 10 15.0784 10.4214 15.8285 11.1716C16.5787 11.9217 17.0001 12.9391 17.0001 14C17.0001 15.0609 16.5787 16.0783 15.8285 16.8284C15.0784 17.5786 14.0609 18 13.0001 18ZM13.0001 15.3333C13.3537 15.3333 13.6928 15.1929 13.9429 14.9428C14.1929 14.6928 14.3334 14.3536 14.3334 14C14.3334 13.6464 14.1929 13.3072 13.9429 13.0572C13.6928 12.8072 13.3537 12.6667 13.0001 12.6667C12.6465 12.6667 12.3073 12.8072 12.0573 13.0572C11.8072 13.3072 11.6667 13.6464 11.6667 14C11.6667 14.3536 11.8072 14.6928 12.0573 14.9428C12.3073 15.1929 12.6465 15.3333 13.0001 15.3333Z" fill="#707070"/>
</svg>
