<svg width="72" height="45" viewBox="0 0 72 45" fill="none" xmlns="http://www.w3.org/2000/svg">
<path d="M12.3172 45C11.0132 45 10.0793 44.7186 9.51542 44.1559C8.95154 43.558 8.6696 42.4502 8.6696 40.8324C8.6696 39.7421 8.77533 38.3529 8.98678 36.6647C9.23348 34.9414 9.62115 32.585 10.1498 29.5955C11.0661 24.0739 11.7885 19.2907 12.3172 15.2462C12.6344 12.714 12.793 10.6038 12.793 8.91559C12.793 7.33294 12.2115 6.54162 11.0485 6.54162C10.1322 6.54162 9.02203 7.01641 7.71806 7.966C6.44934 8.88042 5.03965 10.3576 3.48899 12.3974C2.99559 13.0656 2.44934 13.3998 1.85022 13.3998C1.35683 13.3998 0.9163 13.1712 0.528634 12.7139C0.176211 12.2216 0 11.6764 0 11.0785C0 10.5158 0.105727 9.95311 0.317181 9.39039C0.563877 8.7925 0.951542 8.12427 1.48018 7.3857C3.17181 5.02931 5.05727 3.21805 7.13656 1.95193C9.21586 0.650643 11.2952 0 13.3744 0C15.3128 0 16.7929 0.615474 17.815 1.84642C18.8722 3.07737 19.4009 4.87104 19.4009 7.22743C19.4009 8.17702 19.3128 9.30246 19.1366 10.6038C18.9604 11.8699 18.8018 12.9074 18.6608 13.7163C18.5198 14.5252 18.4141 15.0879 18.3436 15.4045C20.3524 9.67175 22.6079 5.67995 25.1101 3.42907C27.6123 1.14302 30.3612 0 33.3568 0C35.6476 0 37.4449 0.808909 38.7489 2.42673C40.0881 4.04455 40.7577 6.3306 40.7577 9.28488C40.7577 10.4455 40.5991 11.8875 40.2819 13.6108C42.0441 8.75733 44.1057 5.2755 46.467 3.1653C48.8282 1.0551 51.5418 0 54.6079 0C57.0749 0 58.9604 0.791324 60.2643 2.37397C61.6035 3.95662 62.2731 6.17233 62.2731 9.0211C62.2731 10.5686 62.044 12.4502 61.5859 14.6659L58.3612 29.7538C58.0088 31.5123 57.8326 33.0246 57.8326 34.2907C57.8326 35.7679 58.1674 36.8757 58.837 37.6143C59.5419 38.3529 60.511 38.7222 61.7445 38.7222C62.9075 38.7222 64.0352 38.3353 65.1277 37.5616C66.2555 36.7878 67.5771 35.5041 69.0925 33.7104C69.5154 33.2181 69.9912 32.9719 70.5198 32.9719C70.978 32.9719 71.3304 33.1829 71.5771 33.6049C71.859 34.027 72 34.6073 72 35.3458C72 36.7175 71.6652 37.8077 70.9956 38.6166C69.163 40.8324 67.348 42.4502 65.5507 43.4701C63.7533 44.49 61.8678 45 59.8943 45C56.8987 45 54.5551 44.1208 52.8634 42.3623C51.1718 40.5686 50.326 38.177 50.326 35.1876C50.326 33.1125 50.7489 30.1055 51.5947 26.1665L53.7092 16.5123C53.7797 16.1958 53.9031 15.6331 54.0793 14.8241C54.2555 14.0152 54.3965 13.2591 54.5022 12.5557C54.6079 11.8171 54.6608 11.0961 54.6608 10.3927C54.6608 9.16178 54.4141 8.24736 53.9207 7.64947C53.4626 7.01641 52.7929 6.69988 51.9119 6.69988C50.2555 6.69988 48.511 7.77257 46.6784 9.91794C44.8811 12.0281 43.1542 15.5451 41.4978 20.4689C39.8766 25.3927 38.5551 31.7937 37.533 39.6717C37.2863 41.7819 36.8458 43.2063 36.2114 43.9449C35.6123 44.6483 34.6255 45 33.2511 45C32.0529 45 31.1718 44.7186 30.6079 44.1559C30.0793 43.5932 29.815 42.5381 29.815 40.9906C29.815 39.5487 30.0088 37.6671 30.3965 35.3458C30.7841 32.9894 31.2775 30.2286 31.8766 27.0633C33.4978 18.5522 34.3084 13.0656 34.3084 10.6038C34.3084 9.26729 34.044 8.28253 33.5154 7.64947C33.022 7.01641 32.2643 6.69988 31.2423 6.69988C29.5154 6.69988 27.7357 7.68464 25.9031 9.65416C24.0705 11.5885 22.2731 15.0528 20.511 20.0469C18.7841 25.0059 17.3392 31.7233 16.1762 40.1993C15.9295 41.993 15.5595 43.2415 15.0661 43.9449C14.6079 44.6483 13.6916 45 12.3172 45Z" fill="url(#paint0_linear_2_5)"/>
<defs>
<linearGradient id="paint0_linear_2_5" x1="-1.4221e-06" y1="22" x2="29.7303" y2="72.3792" gradientUnits="userSpaceOnUse">
<stop stop-color="#FF8660"/>
<stop offset="1" stop-color="#9A33FF"/>
</linearGradient>
</defs>
</svg>
